<?xml version="1.0" encoding="utf-8"?>
<!-- Generator: Adobe Illustrator 19.1.0, SVG Export Plug-In . SVG Version: 6.00 Build 0)  -->
<svg version="1.1" id="Ebene_1" xmlns="http://www.w3.org/2000/svg" xmlns:xlink="http://www.w3.org/1999/xlink" x="0px" y="0px"
	 viewBox="0 0 141.7 257.6" style="enable-background:new 0 0 141.7 257.6;" xml:space="preserve">
<style type="text/css">
	.st0{opacity:0.96;fill:url(#SVGID_1_);}
	.st1{fill:#D7ECF5;}
	.st2{clip-path:url(#SVGID_3_);}
	.st3{opacity:0.4;fill:url(#SVGID_6_);}
	.st4{clip-path:url(#SVGID_8_);}
	.st5{clip-path:url(#SVGID_10_);}
	.st6{fill:#F7EDE1;}
	.st7{fill:#006BB6;}
	.st8{fill:none;stroke:#006BB6;stroke-width:3;stroke-miterlimit:10;}
	.st9{opacity:0.9;fill:#FFFFFF;}
	.st10{fill:none;stroke:#989898;stroke-width:0.7068;stroke-miterlimit:10;stroke-dasharray:3.0116,3.0116;}
	.st11{fill:#074487;}
	.st12{fill:#CBCBCB;}
	.st13{fill:#0B24FA;}
	.st14{fill:#2CFFFD;}
	.st15{fill:#33ABE0;}
	.st16{clip-path:url(#SVGID_12_);}
	.st17{clip-path:url(#SVGID_14_);}
	.st18{clip-path:url(#SVGID_16_);}
	.st19{clip-path:url(#SVGID_18_);}
	.st20{clip-path:url(#SVGID_22_);}
	.st21{clip-path:url(#SVGID_26_);}
	.st22{clip-path:url(#SVGID_30_);}
	.st23{clip-path:url(#SVGID_34_);}
	.st24{fill:#FFFFFF;}
	.st25{fill:#0000FF;}
	.st26{fill:none;}
	.st27{fill:#333333;}
	.st28{fill:#4D4D4D;}
	.st29{clip-path:url(#SVGID_38_);}
	.st30{fill:#E6E6E6;}
	.st31{clip-path:url(#SVGID_42_);}
	.st32{clip-path:url(#SVGID_46_);}
	.st33{fill:#B3B3B3;}
	.st34{fill:#006BB5;}
	.st35{fill:#B0B0B0;}
	.st36{fill:#666666;}
	.st37{fill:#BF5E00;}
	.st38{fill:#21B573;}
	.st39{fill:#D6DEDE;}
	.st40{fill:#2E73BA;}
	.st41{fill:#52B594;}
	.st42{clip-path:url(#SVGID_50_);}
	.st43{fill:#00CCAB;}
	.st44{fill:#CCF5ED;}
	.st45{fill:#7894F2;}
	.st46{fill:#009CCC;}
	.st47{fill:#008C8C;}
	.st48{fill:#1CB85C;}
	.st49{fill:#FF9600;}
	.st50{fill:#F7C70A;}
	.st51{fill:#FF6E24;}
	.st52{fill:#66A6D4;}
	.st53{fill:#999999;}
	.st54{fill:#303030;}
	.st55{fill:#F5F5F5;}
	.st56{fill:#BFBFBF;}
	.st57{clip-path:url(#SVGID_54_);}
	.st58{fill:#2E3091;}
	.st59{fill:#BDBDBD;}
	.st60{clip-path:url(#SVGID_58_);}
	.st61{fill:none;stroke:#9E9E9E;stroke-miterlimit:10;}
	.st62{fill:#2E3192;}
	.st63{fill:#D3D3D3;}
	.st64{fill:none;stroke:#B3B3B3;stroke-miterlimit:10;}
	.st65{fill:#DC052B;}
	.st66{clip-path:url(#SVGID_62_);fill:#FFFFFF;}
	.st67{clip-path:url(#SVGID_64_);fill:#FFFFFF;}
	.st68{clip-path:url(#SVGID_66_);fill:#FFFFFF;}
	.st69{clip-path:url(#SVGID_68_);fill:#FFFFFF;}
	.st70{clip-path:url(#SVGID_70_);fill:#FFFFFF;}
	.st71{clip-path:url(#SVGID_72_);fill:#040603;}
	.st72{fill:#040603;}
	.st73{clip-path:url(#SVGID_74_);fill:#040603;}
	.st74{clip-path:url(#SVGID_76_);fill:#040603;}
	.st75{clip-path:url(#SVGID_78_);fill:#040603;}
	.st76{fill:#00428A;}
	.st77{clip-path:url(#SVGID_80_);fill:#113578;}
	.st78{fill:#113578;}
	.st79{clip-path:url(#SVGID_82_);fill:#113578;}
	.st80{clip-path:url(#SVGID_84_);fill:#113578;}
	.st81{clip-path:url(#SVGID_86_);fill:#113578;}
	.st82{clip-path:url(#SVGID_86_);fill:#FFFFFF;}
	.st83{clip-path:url(#SVGID_88_);fill:#FFFFFF;}
	.st84{clip-path:url(#SVGID_90_);}
	.st85{clip-path:url(#SVGID_92_);fill:#00428A;}
	.st86{clip-path:url(#SVGID_92_);fill:#29ABE3;}
	.st87{clip-path:url(#SVGID_94_);}
	.st88{clip-path:url(#SVGID_98_);fill:#00428A;}
	.st89{clip-path:url(#SVGID_98_);fill:#29ABE3;}
	.st90{clip-path:url(#SVGID_100_);}
	.st91{opacity:0.5;clip-path:url(#SVGID_104_);}
	.st92{clip-path:url(#SVGID_108_);fill:#DB0030;}
	.st93{clip-path:url(#SVGID_110_);fill:#DB0030;}
	.st94{clip-path:url(#SVGID_112_);}
	.st95{clip-path:url(#SVGID_116_);fill:#00428A;}
	.st96{clip-path:url(#SVGID_116_);fill:#29ABE3;}
	.st97{opacity:0.5;clip-path:url(#SVGID_116_);}
	.st98{clip-path:url(#SVGID_118_);fill:#DB0030;}
	.st99{clip-path:url(#SVGID_120_);}
	.st100{clip-path:url(#SVGID_124_);fill:#00428A;}
	.st101{clip-path:url(#SVGID_124_);fill:#29ABE3;}
	.st102{opacity:0.5;clip-path:url(#SVGID_124_);}
	.st103{clip-path:url(#SVGID_126_);fill:#DB0030;}
	.st104{clip-path:url(#SVGID_128_);}
	.st105{clip-path:url(#SVGID_130_);}
	.st106{clip-path:url(#SVGID_134_);fill:#004289;}
	.st107{clip-path:url(#SVGID_134_);fill:#29AAE2;}
	.st108{opacity:0.5;clip-path:url(#SVGID_134_);}
	.st109{clip-path:url(#SVGID_136_);fill:#DA0030;}
	.st110{clip-path:url(#SVGID_138_);}
	.st111{clip-path:url(#SVGID_142_);}
	.st112{clip-path:url(#SVGID_146_);fill:#004289;}
	.st113{clip-path:url(#SVGID_146_);fill:#29AAE2;}
	.st114{opacity:0.5;clip-path:url(#SVGID_146_);}
	.st115{clip-path:url(#SVGID_148_);fill:#DA0030;}
	.st116{clip-path:url(#SVGID_146_);}
	.st117{clip-path:url(#SVGID_150_);}
	.st118{clip-path:url(#SVGID_152_);fill:#DA0030;}
	.st119{clip-path:url(#SVGID_154_);fill:#29ABE3;}
	.st120{clip-path:url(#SVGID_154_);fill:#00428A;}
	.st121{fill:#5A5A5A;}
	.st122{fill:#0069B8;}
	.st123{fill:none;stroke:#989898;stroke-miterlimit:10;}
	.st124{clip-path:url(#SVGID_156_);}
	.st125{clip-path:url(#SVGID_160_);}
	.st126{clip-path:url(#SVGID_162_);}
	.st127{clip-path:url(#SVGID_164_);}
	.st128{fill:none;stroke:#CBCBCB;stroke-width:2;stroke-miterlimit:10;}
	.st129{clip-path:url(#SVGID_168_);}
	.st130{fill:#989898;}
	.st131{clip-path:url(#SVGID_170_);}
	.st132{fill:none;stroke:#B2B2B2;stroke-miterlimit:10;}
	.st133{fill:#D6DCDC;}
	.st134{fill-rule:evenodd;clip-rule:evenodd;fill:#0069B8;}
	.st135{fill-rule:evenodd;clip-rule:evenodd;fill:#FFFFFF;}
	.st136{fill-rule:evenodd;clip-rule:evenodd;fill:none;stroke:#B2B2B2;stroke-miterlimit:10;}
	.st137{fill:#D4DCDC;}
	.st138{opacity:0.5;}
	.st139{clip-path:url(#SVGID_172_);}
	.st140{fill:none;stroke:#4D4D4D;stroke-width:2;stroke-miterlimit:10;}
	.st141{fill-rule:evenodd;clip-rule:evenodd;fill:none;stroke:#4D4D4D;stroke-width:2;stroke-miterlimit:10;}
	.st142{fill:none;stroke:#333333;stroke-width:2;stroke-miterlimit:10;}
	.st143{fill:none;stroke:#A1A1A1;stroke-width:3;stroke-miterlimit:10;}
	.st144{clip-path:url(#SVGID_174_);}
	.st145{clip-path:url(#SVGID_176_);}
	.st146{fill:url(#SVGID_177_);}
	.st147{fill:url(#SVGID_178_);}
	.st148{fill:#F4F4F4;}
	.st149{fill:#DFDFDF;}
	.st150{clip-path:url(#SVGID_180_);}
	.st151{clip-path:url(#SVGID_182_);}
	.st152{opacity:0.38;fill:#FFFFFF;}
	.st153{fill:none;stroke:#FFFFFF;stroke-miterlimit:10;stroke-dasharray:4,4;}
	.st154{fill:#004288;}
	.st155{fill:#FAFAFA;}
	.st156{fill:#7AE2DF;}
	.st157{fill:#29A9E1;}
	.st158{fill:none;stroke:#004288;stroke-width:2;stroke-miterlimit:10;}
	.st159{fill:none;stroke:#004288;stroke-width:4;stroke-linecap:round;stroke-miterlimit:10;}
	.st160{clip-path:url(#SVGID_184_);}
	.st161{clip-path:url(#SVGID_186_);}
	.st162{clip-path:url(#SVGID_188_);}
	.st163{opacity:4.000000e-02;}
	.st164{fill:url(#SVGID_189_);}
	.st165{fill:url(#SVGID_190_);}
	.st166{fill:none;stroke:#D6DCDC;stroke-width:2;stroke-miterlimit:10;}
	.st167{fill:#AEAEAE;}
	.st168{fill:none;stroke:#0069B8;stroke-width:2;stroke-miterlimit:10;}
	.st169{fill:#FF5039;}
	.st170{fill:#00CCAA;}
	.st171{fill:url(#SVGID_191_);}
	.st172{fill:url(#SVGID_192_);}
	.st173{fill:none;stroke:#0069B8;stroke-miterlimit:10;}
	.st174{fill:#207DC1;}
	.st175{fill:#98E2FF;}
	.st176{opacity:0.4;fill:#CBCBCB;}
	.st177{fill:#FFE774;}
	.st178{fill:#FCD0F1;}
	.st179{fill:none;stroke:#ABA792;stroke-miterlimit:10;}
	.st180{fill:#ABA792;}
	.st181{fill:none;stroke:#FFE774;stroke-miterlimit:10;}
	.st182{fill:none;stroke:#98E2FF;stroke-miterlimit:10;}
	.st183{fill:none;stroke:#FCD0F1;stroke-miterlimit:10;}
	.st184{fill:#7993F2;}
	.st185{fill:#009BCC;}
	.st186{fill:#10B571;}
	.st187{opacity:0.6;fill:url(#SVGID_193_);}
	.st188{fill:none;stroke:#4D4D4D;stroke-miterlimit:10;stroke-dasharray:3,3;}
	.st189{fill:none;stroke:#FFFFFF;stroke-miterlimit:10;}
	.st190{opacity:0.2;fill:none;stroke:#0069B8;stroke-width:2;stroke-miterlimit:10;}
	.st191{fill-rule:evenodd;clip-rule:evenodd;fill:#D6DCDC;}
	.st192{fill:none;stroke:#207DC1;stroke-width:2;stroke-miterlimit:10;}
	.st193{fill:#E5E5E5;}
	.st194{fill:#EAEAE8;}
	.st195{fill:#FF6166;}
	.st196{fill:#FFC43E;}
	.st197{fill:#4FAA5D;}
	.st198{fill:none;stroke:#0069B8;stroke-width:3;stroke-miterlimit:10;}
	.st199{fill:none;stroke:#48C89F;stroke-width:2;stroke-miterlimit:10;}
	.st200{opacity:0.69;}
	.st201{fill:#F9F9F9;}
	.st202{fill:none;stroke:#E5E5E5;stroke-miterlimit:10;stroke-dasharray:1;}
	.st203{fill:none;stroke:#ABA792;stroke-miterlimit:10;stroke-dasharray:1;}
	.st204{opacity:0.79;}
	.st205{fill:url(#SVGID_194_);}
	.st206{fill:#F5655A;}
	.st207{opacity:0.79;fill:none;stroke:url(#SVGID_195_);stroke-miterlimit:10;stroke-dasharray:1;}
	.st208{fill:none;stroke:#F5655A;stroke-width:2;stroke-miterlimit:10;}
	.st209{fill:none;stroke:#ABA792;stroke-width:2;stroke-miterlimit:10;}
	.st210{fill:#71D2C1;}
	.st211{fill:none;stroke:#D4CEB6;stroke-miterlimit:10;}
	.st212{fill:url(#SVGID_196_);}
	.st213{opacity:0.5;fill:none;stroke:#D4CEB6;stroke-miterlimit:10;}
	.st214{fill:#71D2C1;stroke:#FFFFFF;stroke-miterlimit:10;}
	.st215{fill:#2C74BB;}
	.st216{fill:#7590F5;}
	.st217{fill:#1297CC;}
	.st218{fill:#1A8789;}
	.st219{fill:#30C7A4;}
	.st220{fill:#38B350;}
	.st221{fill:#FC9300;}
	.st222{fill:#F3C400;}
	.st223{fill:#FA6F00;}
	.st224{fill:#D6EBF6;}
	.st225{clip-path:url(#SVGID_198_);}
	.st226{clip-path:url(#SVGID_200_);}
	.st227{clip-path:url(#SVGID_204_);}
	.st228{clip-path:url(#SVGID_208_);}
	.st229{fill:url(#SVGID_211_);}
	.st230{clip-path:url(#SVGID_219_);}
	.st231{fill:#7B8E6A;}
	.st232{fill:url(#SVGID_222_);}
	.st233{clip-path:url(#SVGID_226_);}
	.st234{fill:#3333FF;}
	.st235{clip-path:url(#SVGID_228_);}
	.st236{fill:#B2B2B2;}
	.st237{clip-path:url(#SVGID_232_);}
	.st238{clip-path:url(#SVGID_234_);}
	.st239{fill:#005AA9;}
	.st240{clip-path:url(#SVGID_250_);}
	.st241{clip-path:url(#SVGID_252_);}
	.st242{clip-path:url(#SVGID_256_);}
	.st243{clip-path:url(#SVGID_258_);}
	.st244{clip-path:url(#SVGID_262_);}
	.st245{clip-path:url(#SVGID_266_);}
	.st246{fill:url(#SVGID_269_);}
	.st247{clip-path:url(#SVGID_277_);}
	.st248{fill:url(#SVGID_280_);}
	.st249{clip-path:url(#SVGID_284_);}
	.st250{clip-path:url(#SVGID_286_);}
	.st251{clip-path:url(#SVGID_290_);}
	.st252{clip-path:url(#SVGID_292_);}
	.st253{clip-path:url(#SVGID_308_);}
	.st254{clip-path:url(#SVGID_310_);}
	.st255{clip-path:url(#SVGID_314_);}
	.st256{clip-path:url(#SVGID_316_);}
	.st257{clip-path:url(#SVGID_320_);}
	.st258{clip-path:url(#SVGID_324_);}
	.st259{fill:url(#SVGID_327_);}
	.st260{clip-path:url(#SVGID_335_);}
	.st261{fill:url(#SVGID_338_);}
	.st262{clip-path:url(#SVGID_342_);}
	.st263{clip-path:url(#SVGID_344_);}
	.st264{clip-path:url(#SVGID_348_);}
	.st265{clip-path:url(#SVGID_350_);}
	.st266{clip-path:url(#SVGID_366_);}
	.st267{clip-path:url(#SVGID_368_);}
	.st268{clip-path:url(#SVGID_372_);}
	.st269{opacity:0.4;fill:url(#SVGID_375_);}
	.st270{clip-path:url(#SVGID_377_);}
	.st271{clip-path:url(#SVGID_379_);}
	.st272{fill:url(#SVGID_380_);}
	.st273{fill:url(#SVGID_381_);}
	.st274{fill:#AFAFAF;}
	.st275{fill:url(#SVGID_382_);}
	.st276{fill:url(#SVGID_383_);}
	.st277{fill:url(#SVGID_384_);}
	.st278{fill:url(#SVGID_385_);}
	.st279{fill:#EF7357;}
	.st280{fill:none;stroke:#EF7357;stroke-width:3;stroke-linecap:round;stroke-linejoin:round;stroke-miterlimit:10;}
	.st281{fill:none;stroke:#EF7357;stroke-width:3;stroke-miterlimit:10;}
	.st282{fill:none;stroke:#EF7357;stroke-width:2;stroke-miterlimit:10;}
	.st283{fill:none;stroke:#EF7357;stroke-width:7;stroke-linejoin:round;stroke-miterlimit:10;}
	.st284{fill:#D9ECF4;}
	.st285{fill:none;stroke:#FFFFFF;stroke-width:2;stroke-miterlimit:10;}
	.st286{fill-rule:evenodd;clip-rule:evenodd;fill:#EF7357;}
	.st287{fill:url(#SVGID_386_);}
	.st288{fill:none;stroke:#004288;stroke-miterlimit:10;}
	.st289{fill:none;stroke:#004288;stroke-miterlimit:10;stroke-dasharray:1.9976,1.9976;}
	.st290{fill:none;stroke:#004288;stroke-miterlimit:10;stroke-dasharray:2.0029,2.0029;}
	.st291{fill:#D5E4EF;stroke:#004286;stroke-width:2;stroke-miterlimit:10;}
	.st292{fill:url(#SVGID_387_);}
	.st293{fill:url(#SVGID_388_);}
	.st294{fill:url(#SVGID_389_);}
	.st295{fill:url(#SVGID_390_);}
	.st296{opacity:0.6;fill:url(#SVGID_391_);}
	.st297{fill:url(#SVGID_392_);}
	.st298{fill:url(#SVGID_393_);}
	.st299{fill:url(#SVGID_394_);}
	.st300{fill:url(#SVGID_395_);}
	.st301{opacity:0.6;fill:url(#SVGID_396_);}
	.st302{fill:#262D71;}
	.st303{fill:#D80033;}
	.st304{clip-path:url(#SVGID_402_);fill:#FFD938;}
	.st305{clip-path:url(#SVGID_402_);fill:#4F2600;}
	.st306{fill:#4F2600;}
	.st307{clip-path:url(#SVGID_404_);fill:#4F2600;}
	.st308{fill:#00ABDE;}
	.st309{fill:#87CCEB;}
	.st310{fill:#00ADDE;}
	.st311{fill:#00A8D9;}
	.st312{fill:#00A1D9;}
	.st313{fill:#40B5E0;}
	.st314{fill:#D4EBF7;}
	.st315{fill:#0DB0DE;}
	.st316{fill:#36383B;}
	.st317{fill:none;stroke:#36383B;stroke-width:0.124;}
	.st318{clip-path:url(#SVGID_406_);fill:#FFD938;}
	.st319{clip-path:url(#SVGID_406_);fill:#4F2600;}
	.st320{clip-path:url(#SVGID_408_);fill:#4F2600;}
	.st321{opacity:0.74;fill:url(#SVGID_409_);}
	.st322{fill:#E9F7FF;}
	.st323{fill:none;stroke:#006BB6;stroke-width:2;stroke-linecap:round;stroke-miterlimit:10;}
	.st324{fill:none;stroke:#EF7357;stroke-width:2;stroke-linecap:round;stroke-miterlimit:10;}
	.st325{clip-path:url(#SVGID_411_);}
	.st326{fill:none;stroke:#333333;stroke-miterlimit:10;}
	.st327{fill:url(#SVGID_412_);}
	.st328{fill:url(#SVGID_413_);}
	.st329{fill:url(#SVGID_414_);}
	.st330{fill:url(#SVGID_415_);}
	.st331{opacity:0.6;fill:url(#SVGID_416_);}
	.st332{fill:#D7DDDD;}
	.st333{fill:url(#SVGID_417_);}
	.st334{fill:url(#SVGID_418_);}
</style>
<g>
	<line class="st153" x1="105.6" y1="0.2" x2="37.3" y2="160.6"/>
	<path class="st154" d="M131.8,116.7c0.5-0.8,0.9-1.5,1.3-2.3c0.2-0.4,0.4-0.8,0.6-1.2c0.3-0.7,0.7-1.3,1-2c0.2-0.4,0.4-0.9,0.6-1.3
		c0.3-0.6,0.6-1.3,0.9-1.9c0.2-0.5,0.4-0.9,0.6-1.4c0.2-0.6,0.5-1.2,0.7-1.8c0.2-0.5,0.3-1,0.5-1.5c0.2-0.6,0.4-1.2,0.6-1.9
		c0.2-0.5,0.3-1,0.4-1.6c0.2-0.6,0.3-1.2,0.5-1.8c0.2-0.6,0.3-1.2,0.4-1.7c0.1-0.5,0.3-1.1,0.4-1.6c0.1-0.6,0.2-1.2,0.3-1.9
		c0.1-0.5,0.2-1,0.3-1.5c0.1-0.7,0.2-1.3,0.3-2c0.1-0.5,0.1-0.9,0.2-1.4c0.1-0.7,0.1-1.4,0.2-2.1c0-0.4,0.1-0.9,0.1-1.3
		c0-0.7,0.1-1.4,0.1-2.2c0-0.4,0-0.8,0-1.2c0-0.7,0-1.5,0-2.2c0-0.4,0-0.8,0-1.2c0-0.7-0.1-1.5-0.1-2.2c0-0.4,0-0.8-0.1-1.1
		c-0.1-0.8-0.2-1.5-0.3-2.3c0-0.3-0.1-0.7-0.1-1c-0.1-0.8-0.3-1.6-0.4-2.4c-0.1-0.3-0.1-0.6-0.2-0.9c-0.2-0.8-0.3-1.6-0.5-2.5
		c-0.1-0.3-0.1-0.6-0.2-0.9c-0.2-0.8-0.4-1.6-0.6-2.5c-0.1-0.3-0.1-0.5-0.2-0.8c-0.2-0.8-0.5-1.7-0.8-2.5c-0.1-0.2-0.1-0.5-0.2-0.7
		c-0.3-0.8-0.6-1.7-0.9-2.5c-0.1-0.2-0.2-0.5-0.3-0.7c-0.3-0.8-0.7-1.6-1-2.4c-0.1-0.2-0.2-0.5-0.3-0.7c-0.4-0.8-0.8-1.6-1.2-2.4
		c-0.1-0.2-0.2-0.4-0.3-0.7c-0.4-0.8-0.9-1.6-1.3-2.4c-0.1-0.2-0.2-0.4-0.3-0.6c-0.5-0.8-0.9-1.6-1.4-2.4c-0.1-0.2-0.2-0.4-0.3-0.6
		c-0.5-0.8-1-1.5-1.6-2.3c-0.1-0.2-0.2-0.4-0.4-0.6c-0.5-0.8-1.1-1.5-1.7-2.2c-0.1-0.2-0.3-0.4-0.4-0.5c-0.6-0.7-1.2-1.4-1.8-2.1
		c-0.2-0.2-0.3-0.4-0.4-0.5c-0.6-0.7-1.2-1.4-1.9-2c-0.2-0.2-0.3-0.4-0.5-0.5c-0.6-0.7-1.3-1.3-2-2c-0.2-0.2-0.3-0.3-0.5-0.5
		c-0.7-0.6-1.4-1.2-2.1-1.8c-0.2-0.2-0.4-0.4-0.6-0.5c-0.7-0.6-1.4-1.2-2.2-1.7c-0.2-0.2-0.4-0.4-0.7-0.5c-0.7-0.6-1.5-1.1-2.2-1.6
		c-0.2-0.2-0.5-0.3-0.7-0.5c0.1,0.1,3.4,4.3,6.3,11.9c14.9,15,22.3,36.9,17.8,59.2c-7.2,35.5-42,58.6-77.6,51.4
		c-4.8-1-9.4-2.4-13.7-4.3c-7.8,0-12.7-1.5-12.9-1.5c0.2,0.1,0.3,0.2,0.5,0.3c0.9,0.6,1.7,1.1,2.6,1.7c0.2,0.1,0.3,0.2,0.5,0.3
		c0.9,0.5,1.7,1,2.6,1.5c0.2,0.1,0.3,0.2,0.5,0.3c0.9,0.5,1.8,0.9,2.7,1.4c0.2,0.1,0.4,0.2,0.5,0.2c0.9,0.4,1.8,0.8,2.7,1.2
		c0.2,0.1,0.4,0.1,0.6,0.2c0.9,0.4,1.8,0.7,2.7,1.1c0.2,0.1,0.4,0.1,0.6,0.2c0.9,0.3,1.8,0.6,2.7,0.9c0.2,0.1,0.4,0.1,0.6,0.2
		c0.9,0.3,1.8,0.5,2.7,0.8c0.2,0.1,0.5,0.1,0.7,0.2c0.9,0.2,1.8,0.4,2.7,0.6c0.3,0,0.5,0.1,0.8,0.1c0.9,0.2,1.7,0.3,2.6,0.5
		c0.3,0,0.6,0.1,0.9,0.1c0.8,0.1,1.7,0.2,2.6,0.3c0.3,0,0.6,0,0.9,0.1c0.8,0.1,1.7,0.1,2.5,0.2c0.3,0,0.6,0,0.9,0
		c0.8,0,1.6,0.1,2.5,0.1c0.3,0,0.7,0,1,0c0.8,0,1.6,0,2.4,0c0.4,0,0.7-0.1,1.1-0.1c0.8,0,1.5-0.1,2.3-0.2c0.4,0,0.8-0.1,1.1-0.1
		c0.8-0.1,1.5-0.2,2.2-0.3c0.4-0.1,0.8-0.1,1.2-0.2c0.7-0.1,1.5-0.2,2.2-0.4c0.4-0.1,0.8-0.2,1.2-0.3c0.7-0.1,1.4-0.3,2.1-0.5
		c0.4-0.1,0.8-0.2,1.3-0.3c0.7-0.2,1.4-0.3,2-0.5c0.4-0.1,0.9-0.3,1.3-0.4c0.7-0.2,1.3-0.4,1.9-0.6c0.5-0.2,0.9-0.3,1.3-0.5
		c0.6-0.2,1.2-0.4,1.8-0.7c0.5-0.2,0.9-0.4,1.3-0.6c0.6-0.2,1.2-0.5,1.8-0.8c0.4-0.2,0.9-0.4,1.3-0.6c0.6-0.3,1.2-0.5,1.8-0.8
		c0.4-0.2,0.9-0.5,1.3-0.7c0.6-0.3,1.1-0.6,1.7-0.9c0.5-0.3,0.9-0.5,1.3-0.8c0.5-0.3,1.1-0.6,1.6-1c0.4-0.3,0.9-0.6,1.3-0.9
		c0.5-0.3,1-0.7,1.5-1c0.4-0.3,0.8-0.6,1.2-0.9c0.5-0.4,1-0.8,1.5-1.1c0.4-0.3,0.8-0.7,1.2-1c0.5-0.4,1-0.8,1.4-1.2
		c0.4-0.4,0.8-0.8,1.3-1.1c0.4-0.4,0.9-0.8,1.3-1.2c0.4-0.4,0.8-0.8,1.2-1.3c0.4-0.4,0.8-0.8,1.2-1.3c0.4-0.4,0.8-0.9,1.2-1.3
		c0.4-0.5,0.8-0.9,1.2-1.4c0.5-0.6,1-1.2,1.5-1.8c0.3-0.3,0.5-0.6,0.8-1c0.7-1,1.4-1.9,2.1-3c0.7-1,1.4-2,2-3.1
		C131.5,117.2,131.6,116.9,131.8,116.7"/>
	<path class="st155" d="M43.8,140.5c-27.6-12.2-44.1-42.3-37.9-73c7.2-35.5,42-58.6,77.5-51.4c13.3,2.7,24.9,9.2,33.8,18.2
		c-2.8-7.6-6.2-11.8-6.3-11.9c0,0-0.1,0-0.1-0.1C78.6,0.2,34.5,8.5,12.4,40.7c-22.1,32.2-13.8,76.2,18.5,98.2c0,0,0.1,0,0.1,0.1
		C31.1,139,36,140.6,43.8,140.5"/>
	<g>
		<path class="st154" d="M83,55c-1.9-0.9-4-1.6-6.3-2.1C61.4,49.8,46.4,59.7,43.3,75c-1.4,6.8-0.2,13.6,3,19.3
			c3.1,5.7,8.2,10.2,14.5,12.7l1.2-3.2c-5.6-2.2-10-6.2-12.8-11.1c-2.8-5-3.9-10.9-2.6-16.9C48,69,52,63.4,57.3,59.9
			c5.3-3.5,12-5,18.7-3.7c1.9,0.4,3.8,1,5.5,1.8L83,55z"/>
		<path class="st154" d="M81.6,58c4.7,2.1,8.5,5.6,11,9.9l2.9-1.7C92.6,61.4,88.3,57.4,83,55L81.6,58z"/>
	</g>
	<g>
		<path class="st156" d="M92,33.6c12.2,5.4,21.7,15.2,26.7,27.1l3.1-1.3c-5.4-12.7-15.4-23.2-28.5-28.9L92,33.6z"/>
		<path class="st156" d="M93.4,30.4c-3.6-1.6-7.4-2.8-11.4-3.6c-29.8-6-58.8,13.3-64.8,43c-2.7,13.1-0.4,26.1,5.6,37
			c6,10.9,15.6,19.8,27.6,24.6l1.3-3.1c-11.3-4.6-20.3-12.9-25.9-23.1s-7.8-22.4-5.3-34.7c2.8-13.9,11-25.4,22-32.7
			c11-7.3,24.8-10.4,38.8-7.6c3.7,0.8,7.3,1.9,10.7,3.4L93.4,30.4z"/>
	</g>
	<path class="st157" d="M86.8,45.8c8,3.6,14.4,9.7,18.3,17.2c3.9,7.5,5.4,16.3,3.6,25.2l3.3,0.7c2-9.7,0.4-19.3-3.9-27.4
		c-4.3-8.1-11.2-14.8-19.9-18.7L86.8,45.8z"/>
	<path class="st157" d="M88.2,42.7c-2.8-1.2-5.7-2.2-8.8-2.8c-22.6-4.5-44.6,10.1-49.1,32.6c-2,10-0.3,19.9,4.3,28.2
		c4.6,8.3,11.9,15,21.1,18.6l1.3-3.2c-8.4-3.4-15.2-9.5-19.4-17.1c-4.2-7.6-5.8-16.7-4-25.9c2.1-10.3,8.2-18.8,16.3-24.3
		c8.2-5.4,18.4-7.7,28.8-5.6c2.8,0.6,5.5,1.5,8.1,2.6L88.2,42.7z"/>
	<path class="st154" d="M63.6,232.8H29.9l-0.3-0.8c2.2-1.9,4.7-4.1,7.3-6.4c2.6-2.4,5.1-4.8,7.4-7.4c2.3-2.6,4.2-5.2,5.8-7.9
		c1.6-2.7,2.3-5.2,2.3-7.7c0-1.3-0.2-2.6-0.6-3.9c-0.4-1.3-1-2.4-1.7-3.4c-0.8-1-1.7-1.8-2.9-2.4c-1.2-0.6-2.6-0.9-4.2-0.9
		c-3.4,0-6.2,0.9-8.6,2.7c-2.3,1.8-4.3,4-5.9,6.6l-1-0.6c0.7-1.3,1.7-2.9,3.1-4.7c1.3-1.8,2.9-3.6,4.7-5.2c1.8-1.7,3.8-3.1,6-4.2
		c2.2-1.2,4.5-1.7,6.9-1.7c3.3,0,6,1,8.3,3.1c2.2,2.1,3.3,4.9,3.3,8.4c0,2.8-0.6,5.4-1.8,7.9c-1.2,2.5-2.8,4.9-4.6,7.2
		c-1.9,2.3-4,4.5-6.2,6.6c-2.3,2.1-4.5,4.2-6.6,6.2v0.2h17.8c1.8,0,3.2-0.1,4.2-0.4c1-0.3,1.8-0.6,2.5-1.1c0.6-0.5,1.1-1.1,1.5-1.7
		c0.4-0.6,0.7-1.3,1-2l1,0.3L63.6,232.8z"/>
	<path class="st154" d="M102.7,243c-1.6,3-3.7,5.6-6.4,7.8c-2.7,2.1-5.8,3.8-9.3,5c-3.5,1.2-7.2,1.8-11.1,1.8
		c-0.9,0-1.9-0.1-2.9-0.4c-1-0.3-1.9-0.6-2.8-1.1c-0.8-0.5-1.5-1.1-1.9-1.9c-0.5-0.8-0.7-1.7-0.7-2.7c0-1.1,0.3-2,0.7-2.7
		c0.5-0.7,1.4-1.1,2.7-1.1c1.1,0,2.1,0.4,2.9,1.1c0.8,0.7,1.6,1.6,2.4,2.5c0.8,0.9,1.7,1.7,2.7,2.5c1,0.8,2.2,1.1,3.6,1.1
		c0.5,0,1.6-0.2,3.1-0.6c1.5-0.4,3.2-1.2,4.8-2.4c1.7-1.2,3.2-2.9,4.5-5c1.3-2.2,1.9-5,1.9-8.5c0-2.4-0.5-4.5-1.4-6.3
		c-1-1.8-2.2-3.4-3.9-4.8c-1.6-1.4-3.5-2.4-5.6-3.1c-2.1-0.7-4.4-1.1-6.8-1.1h-1.3l-0.3-0.6c1.7-1.3,3.5-2.7,5.5-4.3
		c1.9-1.5,3.7-3.2,5.3-5c1.6-1.8,2.9-3.7,4-5.8c1.1-2,1.6-4.3,1.6-6.7c0-2.7-1-4.9-3-6.4c-2-1.6-4.5-2.4-7.4-2.4
		c-2.8,0-5.2,0.4-7.1,1.3c-1.9,0.9-3.6,2.5-5,4.7l-0.9-0.5c0.7-1.6,1.6-3.1,2.6-4.6c1-1.5,2.2-2.8,3.5-4c1.3-1.2,2.8-2.1,4.5-2.9
		c1.7-0.7,3.6-1.1,5.7-1.1c4.5,0,8.2,1.2,11,3.5c2.9,2.3,4.3,5.4,4.3,9.2c0,1.7-0.3,3.3-1,4.9c-0.7,1.5-1.6,3-2.8,4.5
		c-1.2,1.5-2.7,2.9-4.4,4.4c-1.7,1.5-3.5,3-5.6,4.6c2.2,0.5,4.3,1.2,6.3,2.2c2,1,3.8,2.2,5.3,3.7c1.5,1.5,2.8,3.2,3.7,5.1
		c0.9,1.9,1.3,3.9,1.3,6.1C105,236.6,104.2,240,102.7,243"/>
	<path class="st154" d="M136.9,170.9c-0.5-1.2-1.2-2.2-2.1-3.2c-0.9-0.9-1.9-1.6-3.2-2.2c-1.2-0.5-2.5-0.8-3.9-0.8
		c-1.4,0-2.7,0.3-3.9,0.8c-1.2,0.5-2.2,1.2-3.2,2.1c-0.9,0.9-1.7,2-2.2,3.2c-0.5,1.2-0.8,2.5-0.8,3.9c0,1.4,0.3,2.7,0.8,4
		c0.5,1.3,1.3,2.3,2.2,3.2c0.9,0.9,2,1.6,3.2,2.1c1.2,0.5,2.5,0.8,3.9,0.8c1.4,0,2.7-0.3,3.9-0.8c1.2-0.5,2.3-1.3,3.2-2.2
		c0.9-0.9,1.6-2,2.1-3.2c0.5-1.2,0.7-2.5,0.7-3.9C137.7,173.4,137.4,172.1,136.9,170.9 M140.6,180.2c-0.7,1.7-1.7,3.2-3,4.5
		c-1.3,1.3-2.7,2.3-4.5,3c-1.7,0.7-3.6,1.1-5.5,1.1c-2,0-3.8-0.4-5.5-1.1c-1.7-0.7-3.1-1.7-4.3-3c-1.2-1.3-2.2-2.7-2.9-4.4
		c-0.7-1.7-1.1-3.5-1.1-5.5c0-2,0.4-3.8,1.1-5.6c0.7-1.7,1.7-3.2,3-4.4c1.3-1.2,2.7-2.2,4.5-2.9c1.7-0.7,3.5-1.1,5.4-1.1
		c1.9,0,3.7,0.4,5.4,1.1c1.7,0.7,3.2,1.7,4.5,3c1.3,1.3,2.2,2.8,3,4.5c0.7,1.7,1.1,3.5,1.1,5.5C141.7,176.7,141.4,178.5,140.6,180.2
		"/>
</g>
</svg>
