<?xml version='1.0' encoding='iso-8859-1'?>
<svg version="1.1" xmlns="http://www.w3.org/2000/svg" viewBox="0 0 462.432 462.432" xmlns:xlink="http://www.w3.org/1999/xlink" enable-background="new 0 0 462.432 462.432">
  <g>
    <path d="m300.46,179.35c-6.509,0-14.284,1.846-22.673,5.284 3.438-8.389 5.284-16.165 5.284-22.673 0-18.725-14.811-33.959-33.016-33.959-6.915,0-13.592,2.244-19.136,6.313-5.544-4.069-12.221-6.313-19.136-6.313-18.205,0-33.016,15.234-33.016,33.959 0,6.508 1.846,14.284 5.284,22.673-8.389-3.438-16.164-5.284-22.673-5.284-18.726,0-33.96,14.811-33.96,33.015 0,6.916 2.243,13.592 6.313,19.136-4.07,5.544-6.313,12.22-6.313,19.136 0,18.205 15.234,33.015 33.96,33.015 3.895,0 8.25-0.674 12.912-1.942-10.395,15.033-20.232,33.935-22.804,52.775-0.561,4.104 2.312,7.885 6.416,8.446 0.345,0.047 0.686,0.07 1.024,0.07 3.691,0 6.908-2.727 7.421-6.486 1.564-11.457 6.461-23.186 12.46-33.796 0.854,17.949 15.316,32.282 32.974,32.282 6.915,0 13.592-2.244 19.136-6.313 5.544,4.069 12.221,6.313 19.136,6.313 18.205,0 33.016-15.234 33.016-33.96 0-6.509-1.846-14.283-5.283-22.672 8.389,3.438 16.163,5.283 22.672,5.283 18.726,0 33.96-14.811 33.96-33.015 0-6.916-2.243-13.592-6.313-19.136 4.07-5.544 6.313-12.221 6.313-19.136 0.002-18.205-15.232-33.015-33.958-33.015zm12.607,57.868c4.038,3.428 6.354,8.319 6.354,13.418 0,9.934-8.506,18.015-18.96,18.015-9.113,0-22.977-5.646-37.085-15.102-2.977-1.995-6.945-1.605-9.479,0.927-2.532,2.533-2.921,6.503-0.926,9.479 9.456,14.108 15.102,27.972 15.102,37.085 0,10.455-8.082,18.96-18.016,18.96-5.099,0-9.99-2.316-13.419-6.354-1.425-1.678-3.516-2.646-5.717-2.646s-4.292,0.967-5.717,2.646c-3.429,4.038-8.32,6.354-13.419,6.354-9.934,0-18.016-8.506-18.016-18.96 0-9.113 5.646-22.977 15.102-37.085 1.995-2.976 1.606-6.946-0.926-9.479-2.533-2.532-6.503-2.923-9.479-0.927-14.108,9.457-27.972,15.102-37.085,15.102-10.454,0-18.96-8.082-18.96-18.015 0-5.1 2.315-9.991 6.354-13.418 1.678-1.425 2.646-3.515 2.646-5.717 0-2.202-0.968-4.292-2.646-5.717-4.038-3.428-6.354-8.319-6.354-13.419 0-9.934 8.506-18.015 18.96-18.015 9.113,0 22.977,5.646 37.086,15.102 2.975,1.994 6.945,1.607 9.479-0.927 2.532-2.533 2.921-6.503 0.927-9.479-9.458-14.109-15.104-27.973-15.104-37.085 0-10.454 8.082-18.959 18.016-18.959 5.1,0 9.99,2.315 13.419,6.353 1.425,1.678 3.516,2.646 5.717,2.646s4.292-0.967 5.717-2.646c3.429-4.038 8.319-6.353 13.419-6.353 9.934,0 18.016,8.505 18.016,18.959 0,9.112-5.646,22.977-15.104,37.086-1.994,2.976-1.605,6.946 0.927,9.479 2.532,2.531 6.502,2.922 9.479,0.927 14.109-9.457 27.974-15.103 37.086-15.103 10.454,0 18.96,8.082 18.96,18.015 0,5.1-2.315,9.991-6.354,13.419-1.678,1.425-2.646,3.516-2.646,5.717 0,2.202 0.968,4.292 2.646,5.717z"/>
    <path d="m286.92,224.001h-48.5v-48.5c0-4.142-3.357-7.5-7.5-7.5s-7.5,3.358-7.5,7.5v48.5h-48.5c-4.143,0-7.5,3.358-7.5,7.5s3.357,7.5 7.5,7.5h48.5v48.5c0,4.142 3.357,7.5 7.5,7.5s7.5-3.358 7.5-7.5v-48.5h48.5c4.143,0 7.5-3.358 7.5-7.5s-3.357-7.5-7.5-7.5z"/>
    <path d="m462.42,39.5c0-10.551-4.109-20.47-11.569-27.931-7.461-7.46-17.38-11.569-27.931-11.569s-20.47,4.109-27.931,11.569c-2.977,2.977-6.625,7.073-10.594,12.468-0.491-0.013-0.98-0.037-1.475-0.037h-148.118c-14.824,0-28.761,5.773-39.244,16.256l-181.657,181.657c-18.52,18.521-18.52,48.655-1.06581e-14,67.175l159.432,159.431c8.972,8.972 20.9,13.913 33.588,13.913s24.616-4.941 33.588-13.913l181.657-181.657c10.482-10.482 16.255-24.419 16.255-39.244v-148.118c0-0.661-0.027-1.316-0.05-1.971 3.792-2.696 8.986-6.603 12.48-10.098 7.46-7.461 11.569-17.38 11.569-27.931zm-39,188.118c0,10.818-4.213,20.988-11.862,28.638l-181.657,181.657c-6.138,6.139-14.3,9.519-22.98,9.519s-16.843-3.38-22.98-9.519l-159.433-159.432c-12.672-12.672-12.672-33.291-1.06581e-14-45.962l181.658-181.657c7.649-7.649 17.819-11.862 28.636-11.862h139.965c-5.009,8.865-10.097,19.765-14.713,33.029-0.377-0.014-0.753-0.029-1.134-0.029-17.369,0-31.5,14.131-31.5,31.5s14.131,31.5 31.5,31.5 31.5-14.131 31.5-31.5c0-11.667-6.381-21.866-15.832-27.309 4.131-11.687 9.715-24.608 17.057-36.234 18.151,4.002 31.775,20.207 31.775,39.543v148.118zm-66.148-116.802c0.555,0.125 1.109,0.185 1.655,0.185 3.43,0 6.524-2.367 7.31-5.853 0.822-3.647 2.002-8.461 3.584-14.003 3.425,3.026 5.6,7.436 5.6,12.354 0,9.098-7.402,16.5-16.5,16.5s-16.5-7.402-16.5-16.5c0-7.83 5.488-14.39 12.815-16.07-1.278,4.575-2.495,9.376-3.632,14.422-0.911,4.041 1.627,8.055 5.668,8.965zm82.971-53.991c-1.199,1.2-2.902,2.667-4.964,4.296-5.602-15.911-18.257-28.516-34.198-34.054 1.454-1.697 2.957-3.333 4.516-4.892 4.627-4.627 10.779-7.175 17.323-7.175s12.696,2.548 17.323,7.176c4.628,4.627 7.177,10.78 7.177,17.324 0,6.544-2.548,12.697-7.177,17.325z"/>
  </g>
</svg>
