<?xml version="1.0" encoding="utf-8"?>
<!-- Generator: Adobe Illustrator 19.1.0, SVG Export Plug-In . SVG Version: 6.00 Build 0)  -->
<svg version="1.1" id="Layer_1" xmlns="http://www.w3.org/2000/svg" xmlns:xlink="http://www.w3.org/1999/xlink" x="0px" y="0px"
	 width="262px" height="222px" viewBox="0 0 262 222" enable-background="new 0 0 262 222" xml:space="preserve">
<g>
	<g>
		<path fill="#357EBB" d="M105.548,87.187c4.705,0,8.532-3.827,8.532-8.532V74.79c0-4.705-3.827-8.532-8.532-8.532
			c-4.705,0-8.532,3.827-8.532,8.532v3.865C97.016,83.36,100.844,87.187,105.548,87.187z"/>
		<path fill="#357EBB" d="M128.138,117.926l-0.025-0.073c-0.849-2.194-8.556-21.663-8.633-21.859l-0.022-0.051
			c-1.431-3.186-2.467-5.491-5.752-5.322H97.022c-3.283-0.17-4.32,2.135-5.751,5.322l-0.022,0.051
			c-0.078,0.196-7.785,19.665-8.634,21.859l-0.025,0.073c-0.528,1.667,0.399,3.453,2.066,3.981c0.333,0.106,0.667,0.157,0.994,0.157
			c1.143,0,2.192-0.626,2.78-1.726c0.267-0.498,6.229-11.42,8.469-15.523c-0.387,3.367-1.169,10.235-1.377,12.632
			c-0.057,0.136-0.095,0.282-0.103,0.437l-1.807,35.866c-0.001,0.022-0.002,0.044-0.002,0.065c0,1.062,0.87,1.926,1.939,1.926h6.384
			c1.052,0,1.911-0.839,1.935-1.881l1.471-26.721c0.001-0.024,0.048-0.048,0.048-0.071c0,0.029,0.001,0.057,0.003,0.086
			l1.767,26.716c0.029,1.037,0.886,1.872,1.935,1.872h6.384c1.069,0,1.939-0.864,1.939-1.926c0-0.025-0.001-0.051-0.002-0.076
			l-2.105-35.866c-0.009-0.151-0.047-0.293-0.103-0.425c-0.208-2.397-0.99-9.266-1.377-12.634c2.24,4.103,8.203,15.024,8.469,15.523
			c0.757,1.414,2.273,2.045,3.774,1.57C127.739,121.379,128.666,119.593,128.138,117.926z"/>
	</g>
	<g>
		<path fill="#357EBB" d="M144.691,83.503c1.566,0,2.988-0.619,4.043-1.62c1.275,3.109,4.333,5.305,7.896,5.305
			c3.557,0,6.612-2.189,7.891-5.29c1.054,0.992,2.469,1.606,4.027,1.606c0.68,0,1.232-0.551,1.232-1.232
			c0-0.68-0.551-1.232-1.232-1.232c-1.727,0-3.156-1.288-3.386-2.954V74.79c0-4.705-3.827-8.532-8.532-8.532
			s-8.532,3.827-8.532,8.532v3.094c-0.137,1.762-1.611,3.155-3.408,3.155c-0.68,0-1.232,0.551-1.232,1.232
			C143.46,82.951,144.011,83.503,144.691,83.503z"/>
		<path fill="#357EBB" d="M179.408,117.926l-0.025-0.073c-0.849-2.194-8.556-21.663-8.634-21.859l-0.022-0.051
			c-1.431-3.186-2.463-5.491-5.751-5.322h-16.69c-3.288-0.17-4.32,2.136-5.752,5.322l-0.022,0.051
			c-0.078,0.196-7.785,19.665-8.633,21.859l-0.025,0.073c-0.256,0.808-0.182,1.666,0.208,2.418c0.39,0.752,1.05,1.307,1.857,1.563
			c1.501,0.476,3.017-0.155,3.774-1.57c0.254-0.475,5.895-10.808,8.176-14.985c-1.487,7.129-5.297,25.521-5.367,27.013l-0.001,0.327
			c0,1.722,1.401,3.124,3.124,3.124h0.083l-0.978,17.927c-0.001,0.023-0.002,0.047-0.002,0.071c0,1.062,0.87,1.926,1.939,1.926
			h6.384c1.051,0,1.909-0.837,1.935-1.877l1.094-18.047h1.101l1.094,18.047c0.027,1.039,0.885,1.877,1.935,1.877h6.384
			c1.069,0,1.939-0.864,1.939-1.926c0-0.024-0.001-0.047-0.002-0.071l-0.978-17.927h0.083c1.722,0,3.123-1.401,3.123-3.124
			l-0.001-0.327c-0.069-1.492-3.88-19.883-5.366-27.013c6.856,12.557,8.071,14.79,8.175,14.985c0.757,1.414,2.273,2.045,3.774,1.57
			c0.808-0.256,1.467-0.811,1.857-1.563C179.59,119.592,179.664,118.734,179.408,117.926z"/>
	</g>
</g>
</svg>
